<svg xmlns="http://www.w3.org/2000/svg" viewBox="0 0 45.57 21.26"><defs><style>.cls-1{fill:#d17bd5;}.cls-2{fill:#909;}.cls-3{fill:#fff;}</style></defs><g id="Capa_2" data-name="Capa 2"><g id="Capa_1-2" data-name="Capa 1"><path class="cls-1" d="M38.08,0H13.42A7.48,7.48,0,0,0,6.65,4.76,5.51,5.51,0,0,1,4.57,7.22L.38,9.9a.89.89,0,0,0,0,1.46L4.57,14A5.46,5.46,0,0,1,6.65,16.5a7.49,7.49,0,0,0,6.77,4.76H38.08c4.14,0,7.49-3.73,7.49-8.32V8.32C45.57,3.72,42.22,0,38.08,0Z"/><path class="cls-2" d="M9.35,5.42h1.83l2.09,5.84,1.24-5.84h1.63l-1.77,8.36H12.62L10.46,7.84,9.2,13.78H7.57Z"/><path class="cls-2" d="M18.79,7.6,18,11.33a1.88,1.88,0,0,0-.05.79c.08.31.34.47.77.47A1.42,1.42,0,0,0,20,11.92a2.87,2.87,0,0,0,.37-1l.71-3.36h1.64L21.4,13.78H19.83l.18-.87-.15.17a1.54,1.54,0,0,1-.26.25,2.84,2.84,0,0,1-.84.46,2.59,2.59,0,0,1-.86.13c-.92,0-1.46-.33-1.64-1a3.62,3.62,0,0,1,.08-1.6l.79-3.73Z"/><path class="cls-2" d="M28.9,8.64a2.58,2.58,0,0,1,.2,1.27,7.38,7.38,0,0,1-.2,1.23H24.66a1.27,1.27,0,0,0,.31,1.3,1.13,1.13,0,0,0,.75.24,1.41,1.41,0,0,0,.88-.29A2,2,0,0,0,27,12h1.65a2.68,2.68,0,0,1-.81,1.11,3.42,3.42,0,0,1-2.42.91,2.61,2.61,0,0,1-1.92-.76,2.67,2.67,0,0,1-.38-2.48,4.34,4.34,0,0,1,1.34-2.46,3.42,3.42,0,0,1,2.3-.86,2.93,2.93,0,0,1,1.33.29A1.81,1.81,0,0,1,28.9,8.64Zm-4,1.43h2.51a1.14,1.14,0,0,0-.18-1,1,1,0,0,0-.8-.33,1.31,1.31,0,0,0-.94.35A2.21,2.21,0,0,0,24.93,10.07Z"/><path class="cls-2" d="M34.55,7.6h1.73l-3.54,6.18H31L30.13,7.6h1.81l.32,4.56Z"/><path class="cls-2" d="M38.62,14a2.29,2.29,0,0,1-2.17-1,3.12,3.12,0,0,1-.29-2.33,4.5,4.5,0,0,1,1.28-2.32A3.52,3.52,0,0,1,40,7.4a2.3,2.3,0,0,1,2.17,1,3.17,3.17,0,0,1,.29,2.32A4.45,4.45,0,0,1,41.2,13,3.52,3.52,0,0,1,38.62,14Zm2.16-3.3a2.07,2.07,0,0,0-.07-1.43,1,1,0,0,0-1-.5,1.56,1.56,0,0,0-1.19.5,2.78,2.78,0,0,0-.69,1.43,2.1,2.1,0,0,0,.08,1.44,1,1,0,0,0,1,.5,1.64,1.64,0,0,0,1.2-.5A2.94,2.94,0,0,0,40.78,10.7Z"/><path class="cls-3" d="M9.35,4.75h1.83l2.09,5.83,1.24-5.83h1.63l-1.77,8.36H12.62L10.46,7.17,9.2,13.11H7.57Z"/><path class="cls-3" d="M18.79,6.93,18,10.65a1.93,1.93,0,0,0-.05.8c.08.31.34.47.77.47A1.42,1.42,0,0,0,20,11.25a2.87,2.87,0,0,0,.37-1l.71-3.36h1.64L21.4,13.11H19.83l.18-.87a1,1,0,0,0-.15.17,2.06,2.06,0,0,1-.26.25,3.09,3.09,0,0,1-.84.46,2.88,2.88,0,0,1-.86.13c-.92,0-1.46-.33-1.64-1a3.67,3.67,0,0,1,.08-1.61l.79-3.72Z"/><path class="cls-3" d="M28.9,8a2.64,2.64,0,0,1,.2,1.28,7.55,7.55,0,0,1-.2,1.23H24.66a1.27,1.27,0,0,0,.31,1.3,1.12,1.12,0,0,0,.75.23,1.4,1.4,0,0,0,.88-.28,1.86,1.86,0,0,0,.39-.43h1.65a2.7,2.7,0,0,1-.81,1.12,3.46,3.46,0,0,1-2.42.9,2.57,2.57,0,0,1-1.92-.76,2.64,2.64,0,0,1-.38-2.47,4.34,4.34,0,0,1,1.34-2.46,3.42,3.42,0,0,1,2.3-.86,2.93,2.93,0,0,1,1.33.29A1.79,1.79,0,0,1,28.9,8Zm-4,1.44h2.51a1.14,1.14,0,0,0-.18-1,1,1,0,0,0-.8-.34,1.31,1.31,0,0,0-.94.36A2.21,2.21,0,0,0,24.93,9.4Z"/><path class="cls-3" d="M34.55,6.93h1.73l-3.54,6.18H31l-.91-6.18h1.81l.32,4.56Z"/><path class="cls-3" d="M38.62,13.33a2.31,2.31,0,0,1-2.17-1A3.13,3.13,0,0,1,36.16,10a4.46,4.46,0,0,1,1.28-2.32,3.48,3.48,0,0,1,2.58-1,2.28,2.28,0,0,1,2.17,1A3.16,3.16,0,0,1,42.48,10a4.49,4.49,0,0,1-1.28,2.33A3.56,3.56,0,0,1,38.62,13.33ZM40.78,10a2.07,2.07,0,0,0-.07-1.43,1,1,0,0,0-1-.51,1.57,1.57,0,0,0-1.19.51A2.78,2.78,0,0,0,37.84,10a2.06,2.06,0,0,0,.08,1.43,1,1,0,0,0,1,.51,1.61,1.61,0,0,0,1.2-.51A2.86,2.86,0,0,0,40.78,10Z"/></g></g></svg>