<svg xmlns="http://www.w3.org/2000/svg" viewBox="0 0 21.23 21.23"><defs><style>.cls-1{fill:#3f3;}.cls-2{fill:#d36270;}</style></defs><g id="Capa_2" data-name="Capa 2"><g id="Capa_1-2" data-name="Capa 1"><circle class="cls-1" cx="10.39" cy="10.99" r="4.72"/><path class="cls-1" d="M16.21,5.1c-.4.26-.46.32-.36.47a.29.29,0,0,1,0,.36,11.14,11.14,0,0,1-2.64,2,.31.31,0,0,0,0,.51c.51.42,1.4,1.06,1.21.42s1-1.62,1.84-2.28a.38.38,0,0,1,.43-.05c.27.16.5,0,.74-.18s-.28-.8-.62-1.16A.43.43,0,0,0,16.21,5.1Z"/><path class="cls-1" d="M17.36,11c-.24-.12-.3-.12-.34,0a.17.17,0,0,1-.18.11,6.55,6.55,0,0,1-1.8-.7.18.18,0,0,0-.26.14c0,.38-.1,1,.16.73s1.11,0,1.7.21a.2.2,0,0,1,.15.19c0,.19.17.24.32.32s.31-.39.39-.67A.27.27,0,0,0,17.36,11Z"/><path class="cls-1" d="M16.32,12.5c-.27-.05-.32,0-.33.06a.18.18,0,0,1-.15.16,6.48,6.48,0,0,1-1.92-.13.18.18,0,0,0-.21.21c.06.38.21,1,.37.65s1.06-.34,1.69-.31a.23.23,0,0,1,.2.15c.06.17.23.17.4.2s.18-.46.17-.75A.26.26,0,0,0,16.32,12.5Z"/><path class="cls-1" d="M8.85,3.8c0,.43,0,.51.17.51a.25.25,0,0,1,.26.19,9.79,9.79,0,0,1,.13,3,.28.28,0,0,0,.36.29c.57-.16,1.5-.49.93-.68S10,5.52,9.94,4.55a.36.36,0,0,1,.19-.34c.26-.12.23-.38.25-.64s-.75-.2-1.19-.14A.4.4,0,0,0,8.85,3.8Z"/><path class="cls-1" d="M7.05,5.87c.09.24.13.27.21.24a.16.16,0,0,1,.2,0,6.27,6.27,0,0,1,.78,1.61.16.16,0,0,0,.26.08c.28-.23.72-.63.36-.6s-.76-.7-1-1.22a.21.21,0,0,1,0-.23c.12-.13,0-.27,0-.42s-.46.07-.69.21A.24.24,0,0,0,7.05,5.87Z"/><path class="cls-1" d="M10.6,4.47c-.1.24-.1.29,0,.32a.17.17,0,0,1,.12.16,6.36,6.36,0,0,1-.49,1.73.16.16,0,0,0,.14.23c.36,0,1,0,.67-.21s-.1-1,.05-1.59A.19.19,0,0,1,11.25,5c.17,0,.2-.18.26-.32s-.39-.26-.65-.31A.24.24,0,0,0,10.6,4.47Z"/><path class="cls-1" d="M4.47,8.47c.25.11.3.11.33,0A.19.19,0,0,1,5,8.37,6.28,6.28,0,0,1,6.75,9,.18.18,0,0,0,7,8.8c0-.37,0-1-.2-.7S5.73,8.17,5.15,8A.21.21,0,0,1,5,7.81c0-.17-.18-.22-.33-.28s-.28.39-.34.67A.24.24,0,0,0,4.47,8.47Z"/><path class="cls-1" d="M5.08,14.06c.24-.12.27-.16.22-.24a.18.18,0,0,1,0-.21,6.18,6.18,0,0,1,1.56-1,.18.18,0,0,0,0-.29c-.28-.25-.75-.65-.67-.28s-.62.88-1.12,1.23a.21.21,0,0,1-.24,0c-.15-.1-.28,0-.42.08s.13.46.31.68A.23.23,0,0,0,5.08,14.06Z"/><path class="cls-1" d="M16.06,8.42c-.27,0-.31.06-.29.16a.18.18,0,0,1-.09.19,6.63,6.63,0,0,1-1.82.41.17.17,0,0,0-.14.25c.17.34.47.87.52.5s.89-.61,1.48-.75a.22.22,0,0,1,.23.07c.11.15.26.1.43.08s0-.47-.05-.74A.26.26,0,0,0,16.06,8.42Z"/><path class="cls-1" d="M12.29,3.21c-.17.42-.18.5,0,.56a.27.27,0,0,1,.19.29,10.1,10.1,0,0,1-1,3,.29.29,0,0,0,.25.42c.64,0,1.68.07,1.18-.34s-.11-1.82.19-2.81a.36.36,0,0,1,.31-.27c.3,0,.37-.29.48-.55s-.67-.47-1.14-.57A.42.42,0,0,0,12.29,3.21Z"/><path class="cls-1" d="M3.69,12.45c.47-.06.55-.1.51-.27a.31.31,0,0,1,.17-.33,11.18,11.18,0,0,1,3.22-.71.31.31,0,0,0,.26-.44c-.3-.6-.83-1.55-.93-.89s-1.58,1.06-2.63,1.31a.37.37,0,0,1-.4-.14c-.18-.26-.47-.18-.75-.14s-.08.84.08,1.32A.42.42,0,0,0,3.69,12.45Z"/><path class="cls-1" d="M5.08,6.63c.18.22.22.25.29.18a.17.17,0,0,1,.22,0A6.26,6.26,0,0,1,6.93,8.16a.18.18,0,0,0,.3,0c.21-.33.51-.88.16-.73s-1-.46-1.46-.9a.2.2,0,0,1-.06-.24c.07-.17,0-.28-.16-.42s-.44.23-.63.45A.24.24,0,0,0,5.08,6.63Z"/><path class="cls-1" d="M7.17,4.69c0,.28,0,.32.14.31a.18.18,0,0,1,.19.11A6.52,6.52,0,0,1,7.81,7a.18.18,0,0,0,.25.16c.35-.15.93-.43.54-.51S8,5.7,7.93,5.09A.22.22,0,0,1,8,4.86c.16-.1.12-.27.11-.44s-.49-.07-.77,0A.25.25,0,0,0,7.17,4.69Z"/><path class="cls-1" d="M9.84,18.58c.19-.38.2-.46.06-.52a.25.25,0,0,1-.16-.29A9.88,9.88,0,0,1,10.86,15a.28.28,0,0,0-.2-.42c-.6-.08-1.58-.17-1.14.24s0,1.72-.36,2.62a.34.34,0,0,1-.31.23c-.29,0-.38.26-.5.49s.6.48,1,.61A.39.39,0,0,0,9.84,18.58Z"/><path class="cls-1" d="M13.28,16.51c0-.25,0-.3-.09-.3a.15.15,0,0,1-.16-.12,5.83,5.83,0,0,1,0-1.8.17.17,0,0,0-.21-.18c-.35.1-.91.28-.57.41s.4,1,.42,1.53a.22.22,0,0,1-.11.2c-.16.07-.15.23-.16.39s.44.12.71.09A.24.24,0,0,0,13.28,16.51Z"/><path class="cls-1" d="M7.59,17.25c.18-.18.2-.22.13-.29a.17.17,0,0,1,0-.19A6.29,6.29,0,0,1,8.85,15.4a.16.16,0,0,0,0-.27c-.32-.16-.86-.4-.69-.08s-.34,1-.71,1.43a.21.21,0,0,1-.22.07c-.16-.05-.26.07-.37.18s.25.39.47.55A.24.24,0,0,0,7.59,17.25Z"/><path class="cls-1" d="M16,15c-.28-.3-.34-.33-.44-.23a.25.25,0,0,1-.31.05,9.17,9.17,0,0,1-2-1.88.26.26,0,0,0-.43.05c-.27.49-.67,1.32-.16,1.07s1.49.57,2.17,1.17a.32.32,0,0,1,.11.34c-.09.26.1.41.26.59s.62-.36.87-.7A.36.36,0,0,0,16,15Z"/><path class="cls-1" d="M5.51,16.75c.34-.31.38-.38.26-.5a.29.29,0,0,1,0-.35,10.43,10.43,0,0,1,2.14-2.34.3.3,0,0,0-.05-.49c-.56-.3-1.51-.75-1.22-.18s-.66,1.71-1.34,2.48a.36.36,0,0,1-.39.12c-.29-.11-.46.11-.67.3s.41.7.79,1A.41.41,0,0,0,5.51,16.75Z"/><path class="cls-2" d="M3.11,3.11a10.61,10.61,0,1,0,15,0A10.6,10.6,0,0,0,3.11,3.11Zm1.3,13.71A8.78,8.78,0,0,1,3.8,5.1L16.13,17.43A8.78,8.78,0,0,1,4.41,16.82Zm13-.69L5.1,3.8A8.77,8.77,0,0,1,17.43,16.13Z"/></g></g></svg>