<svg xmlns="http://www.w3.org/2000/svg" viewBox="0 0 42.27 19.91"><defs><style>.cls-1{fill:#fff;}</style></defs><g id="Capa_2" data-name="Capa 2"><g id="Capa_1-2" data-name="Capa 1"><path class="cls-1" d="M0,17.12V0H12.53A8.45,8.45,0,0,1,14.8.28a5.09,5.09,0,0,1,1.75.84,3.76,3.76,0,0,1,1.14,1.39,4.48,4.48,0,0,1,.4,1.92,5,5,0,0,1-.19,1.43,3.44,3.44,0,0,1-.52,1,3.13,3.13,0,0,1-.77.73,3.41,3.41,0,0,1-.9.44,3.84,3.84,0,0,1,1.93,1.36,4,4,0,0,1,.75,2.5A5.61,5.61,0,0,1,18,14.07a4.78,4.78,0,0,1-1.1,1.64,5,5,0,0,1-1.75,1.05,6.8,6.8,0,0,1-2.27.36ZM12.89,3.06A13.43,13.43,0,0,0,11.4,3H3V14.15h8.67A9.79,9.79,0,0,0,13.14,14a3.81,3.81,0,0,0,1.18-.39,2.06,2.06,0,0,0,.76-.7,1.92,1.92,0,0,0,.27-1.06,2,2,0,0,0-.66-1.63,2.82,2.82,0,0,0-1.93-.58h-1.6V7.16h1.39a3.13,3.13,0,0,0,1.89-.47,1.93,1.93,0,0,0,.61-1.6A2.08,2.08,0,0,0,14.79,4"/><path class="cls-1" d="M20.73,17.12V3.89H24V17.12Z"/><path class="cls-1" d="M32.78,17.12V3h-6.5V0h16V3h-6.5V17.12Z"/><rect class="cls-1" x="20.73" width="3.26" height="2.88"/><rect class="cls-1" y="18.75" width="42.27" height="1.17"/><rect class="cls-1" x="7.56" y="7.08" width="2.78" height="2.78"/><rect class="cls-1" x="4.05" y="7.08" width="2.78" height="2.78"/></g></g></svg>